<?xml version="1.0" encoding="utf-8"?>
<!-- Generator: Adobe Illustrator 25.0.1, SVG Export Plug-In . SVG Version: 6.00 Build 0)  -->
<svg version="1.1" id="Layer_1" xmlns="http://www.w3.org/2000/svg" xmlns:xlink="http://www.w3.org/1999/xlink" x="0px" y="0px"
	 viewBox="0 0 215.15 120.64" style="enable-background:new 0 0 215.15 120.64;" xml:space="preserve">
<g>
	<polygon points="193.95,120.64 158.71,120.64 96.95,60.7 96.95,59.68 158.71,0 193.95,0 131.73,60.24 	"/>
</g>
<g>
	<path d="M53.73,116.85c0.88,0.41,2.21,0.1,3.3,0.34c-1.54-0.51-3.06-1.1-4.56-1.76C52.76,116.05,53.17,116.59,53.73,116.85z"/>
	<path d="M34.77,93.95c1.59-0.39,3.51-2.28,2.58-4.59c-0.55-1.37-1.67-2.13-3.66-2.13c-0.24,0.15-0.63,0.14-0.88,0.26
		c-0.85,0.43-1.57,1.12-1.89,2.07C30.13,91.92,32.44,94.53,34.77,93.95z"/>
	<path d="M25.45,86.02c0.4,0.18,1.12,0.45,1.81,0.3c1.96-0.44,3.78-2.71,2.37-5.04c-0.61-1-1.62-1.53-3.29-1.52
		c-0.23,0.14-0.56,0.1-0.83,0.21c-0.73,0.3-1.47,1.02-1.78,1.74C22.89,83.69,24.1,85.44,25.45,86.02z"/>
	<path d="M101.52,85.98c-7.1,6.84-15.67,10.25-25.7,10.25c-6.17,0-11.81-1.34-16.92-4.03c-0.41,1.04-1.38,1.86-2.5,2.12
		c-0.58,0.14-1.2-0.1-1.54-0.24c-1.13-0.49-2.55-1.79-1.93-3.71c0.18-0.54,0.49-1.02,0.88-1.41c-1.18-0.89-2.3-1.83-3.34-2.84
		c-0.44,0.36-0.95,0.63-1.51,0.77c-0.58,0.14-1.2-0.1-1.54-0.24c-1.13-0.49-2.55-1.79-1.93-3.71c0.18-0.55,0.5-1.04,0.9-1.44
		c-0.85-1.17-1.64-2.37-2.36-3.65c-0.45,0.8-1.28,1.42-2.26,1.64c-0.39,0.09-1.18,0.04-1.48-0.08c-1.32-0.44-2.99-2.12-2.21-4.15
		c0.34-0.89,1.08-1.67,1.94-2.01c0.3-0.13,0.78-0.05,1.05-0.2c0.24,0,0.48,0.04,0.7,0.09c-1.63-4.14-2.46-8.42-2.46-12.86
		c0-6.21,1.56-12.1,4.66-17.64c3.11-5.55,7.45-9.99,13.05-13.31c5.6-3.33,11.86-4.99,18.78-4.99c10.03,0,18.6,3.43,25.7,10.25
		l2,1.87l17.44-16.78l-1.59-1.59c-5.77-5.6-12.36-9.94-19.78-13.05c-7.42-3.11-15.33-4.66-23.78-4.66c-8.34,0-16.25,1.59-23.7,4.79
		c-7.91,3.38-14.67,7.91-20.32,13.59c-5.63,5.68-9.95,12.1-12.92,19.25c-2.71,6.51-4.17,13.28-4.42,20.27
		c0.58,0.55,0.88,1.28,1.09,2.3c0,0.31,0,0.63-0.01,0.93c-0.01,1.14-0.05,2.4,0.63,2.87c0.65,0.45,2.02,0.35,3.09,0.36
		c0.31,0,0.61,0.01,0.93,0.01c0.58,0.14,1.13,0.28,1.53,0.56c0.64,0.46,0.99,1.19,1.18,2.11c0,0.4-0.01,0.8-0.01,1.22
		c-0.01,1.28,0.11,2.43,0.84,2.99c1.32,0.98,4.25,0.21,5.55,1.17c1.64,1.22,0.36,4.28,1.48,5.86c0.38,0.54,1.05,0.88,1.81,1.07
		c1.43,0.35,2.99-0.19,4.02,0.54c0.58,0.41,0.85,1.07,1.02,1.88c0,0.39-0.01,0.77-0.01,1.15c-0.01,1.22,0.01,2.32,0.51,3.04
		c1.05,1.49,4.27,0.51,5.71,1.61c0.63,0.48,0.94,1.24,1.13,2.16c0,0.31-0.01,0.63-0.01,0.94c-0.01,1.28-0.21,3.12,0.73,3.48
		c0.79,0.61,2.62,0.08,3.74,0.38c1.31,0.35,2.21,1.27,2.67,2.45c0.54,1.42-0.03,3.33-0.72,4.18c-0.78,0.95-2.58,0.35-3.98,0.73
		c-1.96,0.51-3.12,3.41-1.88,5.48c0.49,0.8,1.31,1.48,2.3,1.78c1.36,0.43,3.51,0.06,4.08-0.73c0.74-1.02,0.09-3.16,0.55-4.5
		c0.82-2.38,4.91-2.11,6.17-0.31c1.57,2.21,0.19,5.12-2,5.65c-1.19,0.29-2.82-0.24-3.69,0.34c-0.56,0.38-1.05,2.58-0.82,3.79
		c0.05,0.28,0.03,0.7,0.1,0.99c0.06,0.25,0.15,0.5,0.26,0.74c1.49,0.65,3.01,1.23,4.56,1.76c0.05,0.01,0.11,0.01,0.16,0.04
		c0.21,0.06,0.41,0.14,0.6,0.24c5.71,1.83,11.71,2.75,18.02,2.75c8.43,0,16.36-1.56,23.78-4.66c7.42-3.11,14-7.45,19.78-13.05
		l1.59-1.59l-17.44-16.78L101.52,85.98z M19.73,56.67c-1.88,0.45-3.95-1.62-3.31-3.61c0.24-0.77,0.78-1.43,1.39-1.79
		c0.3-0.11,0.59-0.21,0.88-0.33c1.58-0.01,2.5,0.4,3.07,1.36C22.93,54.23,21.36,56.28,19.73,56.67z M32.26,53.34
		c0.16-0.53,0.6-1.03,1.07-1.25c0.16-0.05,0.33-0.1,0.49-0.16c2.87-0.04,2.87,3.36,0.5,3.85C33.19,56.03,31.89,54.61,32.26,53.34z
		 M25.14,45.89c0.24-0.78,0.73-0.85,1.33-1.25c2.55-0.05,2.67,2.85,0.68,3.36C25.93,48.31,24.81,46.94,25.14,45.89z M27.07,64.41
		c-0.39,0.09-1.12,0.03-1.43-0.08c-1.27-0.4-2.84-2.06-2.11-3.99c0.28-0.73,0.83-1.43,1.46-1.79c0.3-0.19,0.75-0.18,1.05-0.38
		c1.87-0.01,2.94,0.69,3.45,1.97C30.37,62.3,28.61,64.05,27.07,64.41z M36.81,70.18c-0.49,1.09-1.51,1.63-2.82,1.89
		c-0.46,0.09-1.03-0.16-1.32-0.29c-1.15-0.5-2.02-1.37-2.01-3c0.03-0.29,0.04-0.59,0.06-0.88c0.31-0.94,1-1.77,1.89-2.12
		c0.28-0.11,0.64-0.06,0.88-0.21C36,65.57,37.95,67.69,36.81,70.18z M60.77,98.04c0.24-0.74,0.87-1.42,1.56-1.69
		c0.23-0.09,0.53-0.04,0.72-0.15c1.73,0,3.34,1.63,2.55,3.44c-0.43,0.98-1.17,1.37-2.33,1.62c-0.29,0.06-0.75-0.15-0.93-0.23
		C61.39,100.66,60.27,99.57,60.77,98.04z M65.87,114.96c-0.46,1.02-1.43,1.53-2.66,1.78c-0.58,0.11-1.25-0.18-1.59-0.35
		c-1.18-0.61-2.4-2.17-1.61-3.98c0.3-0.7,0.98-1.44,1.67-1.74c0.29-0.13,0.68-0.1,0.94-0.26C65.07,110.39,66.99,112.5,65.87,114.96z
		 M72.56,106.99c-0.29,0.67-0.94,1.13-1.72,1.31c-1.54,0.35-2.76-1.61-2.17-2.94c0.19-0.41,0.69-0.92,1.12-1.09
		c0.2-0.09,0.44-0.05,0.6-0.16C71.82,104.09,73.26,105.41,72.56,106.99z"/>
	<path d="M42.13,101.68c1.78-0.41,3.33-1.86,2.8-4.37c-0.18-0.82-0.01-1.25-0.41-1.82c-0.59-0.83-2.07-0.87-3.51-0.87
		c-0.33,0.09-0.67,0.18-0.99,0.26c-0.75,0.31-1.46,1.09-1.78,1.84C37.13,99.28,39.49,102.29,42.13,101.68z"/>
	<path d="M38.21,96.74c0.33-0.77,1.03-1.53,1.78-1.84c0.33-0.09,0.67-0.18,0.99-0.26c1.44,0,2.92,0.04,3.51,0.87
		c0.4,0.56,0.25,1,0.41,1.82c0.53,2.52-1.02,3.97-2.8,4.37C39.49,102.29,37.13,99.28,38.21,96.74z M30.92,89.56
		c0.33-0.95,1.04-1.64,1.89-2.07c0.25-0.13,0.64-0.11,0.88-0.26c2,0,3.11,0.77,3.66,2.13c0.93,2.31-0.99,4.2-2.58,4.59
		C32.44,94.53,30.13,91.92,30.92,89.56z M23.74,81.71c0.31-0.73,1.05-1.44,1.78-1.74c0.26-0.11,0.6-0.08,0.83-0.21
		c1.67-0.01,2.67,0.51,3.29,1.52c1.41,2.32-0.4,4.59-2.37,5.04c-0.69,0.16-1.42-0.13-1.81-0.3C24.1,85.44,22.89,83.69,23.74,81.71z"
		/>
	<path d="M57.03,117.19c0.25,0.09,0.51,0.19,0.77,0.26c-0.19-0.09-0.39-0.18-0.6-0.24C57.14,117.2,57.09,117.2,57.03,117.19z"/>
</g>
</svg>
